<?xml version="1.0" standalone="no"?>
<!DOCTYPE svg PUBLIC "-//W3C//DTD SVG 20010904//EN"
 "http://www.w3.org/TR/2001/REC-SVG-20010904/DTD/svg10.dtd">
<svg version="1.0" xmlns="http://www.w3.org/2000/svg"
 width="360.000000pt" height="360.000000pt" viewBox="0 0 360.000000 360.000000"
 preserveAspectRatio="xMidYMid meet">

<g transform="translate(0.000000,360.000000) scale(0.100000,-0.100000)"
fill="#000000" stroke="none">
<path d="M1600 3295 c-274 -31 -565 -115 -711 -204 -27 -17 -52 -31 -55 -31
-16 0 -194 -144 -229 -186 -122 -142 -182 -270 -210 -450 -21 -128 -47 -246
-84 -379 -47 -166 -74 -398 -67 -570 7 -167 11 -202 42 -324 23 -91 75 -220
101 -252 7 -8 13 -19 13 -23 0 -15 103 -140 154 -189 174 -163 564 -318 944
-374 142 -20 437 -23 567 -5 247 35 490 128 698 266 119 80 126 86 228 186 67
67 97 105 136 180 164 305 240 598 230 875 -6 152 -7 166 -32 270 -56 244
-179 465 -385 694 -143 159 -338 308 -500 383 -134 62 -144 66 -235 92 -173
49 -395 64 -605 41z m495 -134 c279 -68 498 -195 712 -412 143 -146 219 -249
297 -404 63 -123 67 -135 102 -260 27 -95 29 -110 28 -310 0 -196 -1 -217 -27
-320 -40 -157 -72 -241 -149 -396 -78 -156 -112 -199 -241 -301 -124 -99 -173
-130 -302 -193 -231 -112 -439 -157 -720 -156 -309 1 -591 64 -909 203 -274
120 -419 296 -498 603 -21 81 -23 113 -23 315 0 236 15 358 65 515 30 93 61
231 69 309 10 84 44 202 77 267 139 276 459 466 904 538 168 27 191 29 370 26
119 -2 176 -7 245 -24z"/>
<path d="M1630 3039 c-278 -37 -438 -81 -594 -163 -98 -52 -146 -88 -220 -162
-106 -108 -149 -207 -190 -444 -15 -81 -32 -157 -74 -320 -39 -148 -47 -222
-47 -420 0 -172 3 -206 24 -290 47 -188 150 -346 284 -432 142 -92 414 -191
657 -240 98 -19 147 -22 325 -22 226 0 317 13 483 69 202 69 433 213 558 346
78 83 184 313 230 494 119 478 -28 907 -435 1268 -289 257 -631 365 -1001 316z
m668 -397 c2 -14 -13 -51 -38 -93 -22 -38 -38 -74 -35 -79 9 -14 122 -90 134
-90 18 0 43 -48 36 -69 -14 -45 -65 -32 -169 43 -27 19 -53 33 -56 31 -4 -3
-22 -43 -41 -91 -35 -91 -55 -112 -89 -94 -30 16 -25 63 19 162 l38 86 -68 68
c-78 78 -88 97 -63 125 27 30 45 23 109 -41 33 -33 63 -60 67 -60 4 0 19 21
34 48 42 72 54 83 88 80 24 -2 32 -9 34 -26z m-1000 -104 c23 -23 11 -52 -59
-134 l-70 -84 72 -80 c60 -67 70 -83 65 -105 -5 -20 -13 -25 -37 -25 -24 0
-42 13 -91 65 -42 46 -64 63 -71 56 -6 -6 -25 -37 -41 -68 -24 -45 -37 -59
-57 -61 -14 -2 -31 4 -39 13 -16 20 0 76 42 142 15 24 28 48 28 53 0 6 -13 28
-28 49 -15 21 -34 57 -42 80 -13 39 -12 43 7 62 28 29 54 14 90 -53 15 -28 33
-53 38 -54 6 -2 38 33 73 77 64 80 91 96 120 67z m1397 -457 c175 -53 214 -77
200 -121 -9 -27 -36 -32 -82 -16 -23 8 -44 12 -47 9 -3 -4 -6 -22 -6 -42 -1
-83 -67 -370 -91 -395 -19 -21 -7 -35 54 -64 75 -35 140 -98 156 -151 28 -96
4 -230 -51 -276 -58 -49 -137 -24 -263 84 -66 57 -95 73 -95 52 0 -5 -32 -43
-72 -86 -92 -98 -136 -120 -253 -128 -79 -5 -101 -11 -175 -46 -76 -37 -91
-41 -160 -41 -92 0 -212 30 -284 70 -28 16 -101 79 -161 140 -123 123 -143
134 -272 150 -108 12 -174 41 -223 97 -40 45 -89 151 -111 236 -6 27 -18 51
-25 54 -7 2 -31 -8 -53 -22 -46 -31 -85 -29 -94 5 -8 32 27 65 120 111 108 53
194 65 212 30 18 -33 -2 -60 -50 -67 -21 -4 -41 -10 -44 -14 -4 -7 63 -200 83
-235 16 -31 64 -73 96 -85 15 -6 72 -16 125 -24 129 -18 181 -45 267 -141 136
-149 231 -202 384 -212 76 -6 80 -5 165 36 76 36 99 42 178 47 110 8 130 18
218 112 118 125 206 280 269 472 27 82 38 143 65 331 4 31 1 37 -21 47 -14 7
-31 12 -38 12 -27 0 -34 50 -10 74 19 20 16 20 89 -3z"/>
<path d="M2610 1370 c0 -11 5 -20 10 -20 17 0 111 -92 121 -118 12 -32 -5 -62
-36 -62 -17 0 -42 18 -78 55 -55 57 -71 65 -80 41 -9 -22 175 -176 211 -176
20 0 42 64 42 122 0 69 -25 109 -92 147 -63 36 -98 40 -98 11z"/>
</g>
</svg>
